<svg xmlns="http://www.w3.org/2000/svg" viewBox="0 0 223.44 341.83"><defs><style>.cls-1{fill:#1c4d89;}.cls-2{fill:#f58d24;}</style></defs><g id="Layer_2" data-name="Layer 2"><g id="Layer_1-2" data-name="Layer 1"><path class="cls-1" d="M168.82,53.94,74.87,83.68C106.32,41.71,146.28,17.12,193,0,206,47.42,215.73,93.88,206.43,147.05,192.94,113.65,181.09,84.33,168.82,53.94Z"/><path class="cls-2" d="M67.05,324.29c-2.52-7.65-4-12.09-6.1-18.51L35.57,341.83,32.85,340l8.38-38.63-9.48-1.63c7.55-23.12,14-46.08,28.94-65.12a66.91,66.91,0,0,1,13.38-12.82c6.37-4.57,14.06-4.69,20.91-1.43s8.44,10.29,7.27,17.07C97,268,84.89,295.83,67.05,324.29Z"/><path class="cls-1" d="M109,151.45c-18.12-9.37-26.94-26.58-22-42.91,5.43-18,20-26.61,41.07-24.43,32,3.3,52.11,27,44.61,54.21l-27.75-10.54c-.47-2.85-.45-6.2-1.61-9.07-2.51-6.21-7.09-9.94-14.15-10.35-5-.29-9,1.25-10.78,5.81-2.38,6-.95,11.25,3.79,15.94,6,6,11.61,12.38,17.38,18.61Z"/><path class="cls-2" d="M109,151.45l30.55-2.73c12.88,6.46,18.67,17.42,17.41,31.27-1.35,14.72-9.72,25.33-23.93,29.69-21,6.45-38.72-1.61-54.25-15.21-11.79-10.33-15-23.57-10.6-39.69l28.45,11.15c.13,8.23,1.15,16.69,10.88,19.68,5.81,1.78,11.86,2.5,16.14-3,4.57-5.87,2.89-11.78-1.6-17C117.84,160.8,113.36,156.18,109,151.45Z"/><path class="cls-1" d="M198.08,163.83c9.5,23.43,17.23,42.47,25.36,62.53l-63.3,23.06C181,221.82,190.54,195.59,198.08,163.83Z"/><path class="cls-1" d="M23.87,185.44,0,120.6,61.45,99.83C45.2,127.42,29.1,150.82,23.87,185.44Z"/></g></g></svg>