<?xml version="1.0" standalone="no"?>
<!DOCTYPE svg PUBLIC "-//W3C//DTD SVG 20010904//EN"
 "http://www.w3.org/TR/2001/REC-SVG-20010904/DTD/svg10.dtd">
<svg version="1.0" xmlns="http://www.w3.org/2000/svg"
 width="1024.000000pt" height="1024.000000pt" viewBox="0 0 1024.000000 1024.000000"
 preserveAspectRatio="xMidYMid meet">
<metadata>
Created by potrace 1.14, written by Peter Selinger 2001-2017
</metadata>
<g transform="translate(0.000000,1024.000000) scale(0.100000,-0.100000)"
fill="#000000" stroke="none">
<path d="M7220 8755 c-19 -7 -47 -14 -62 -14 -15 -1 -30 -5 -33 -11 -3 -5 -18
-10 -32 -10 -30 0 -85 -16 -126 -36 -16 -8 -35 -14 -43 -14 -21 0 -117 -31
-128 -41 -6 -5 -20 -9 -32 -9 -13 0 -26 -4 -29 -10 -3 -5 -19 -10 -34 -10 -16
0 -34 -7 -41 -15 -7 -8 -21 -15 -31 -15 -11 0 -27 -4 -37 -9 -44 -24 -87 -41
-103 -41 -10 0 -21 -4 -24 -10 -3 -5 -17 -10 -30 -10 -13 0 -28 -6 -32 -13 -9
-13 -69 -37 -95 -37 -9 0 -18 -7 -22 -15 -3 -8 -12 -15 -21 -15 -8 0 -49 -16
-91 -35 -41 -19 -79 -35 -84 -35 -4 0 -13 -7 -20 -15 -7 -8 -22 -15 -33 -15
-11 0 -35 -11 -53 -25 -18 -14 -38 -25 -44 -25 -6 0 -27 -10 -48 -23 -20 -13
-62 -36 -92 -51 -30 -15 -68 -35 -85 -46 -16 -11 -39 -24 -50 -30 -11 -5 -38
-21 -60 -35 -22 -14 -51 -30 -65 -36 -14 -5 -34 -18 -45 -28 -11 -10 -35 -24
-52 -32 -18 -8 -33 -17 -33 -21 0 -4 -21 -19 -47 -34 -98 -57 -349 -250 -453
-350 -25 -23 -70 -64 -100 -89 -76 -65 -310 -295 -310 -305 0 -14 32 -16 80
-7 25 5 74 12 110 15 36 4 70 11 77 15 6 4 34 9 61 11 28 3 60 9 71 15 11 6
40 11 64 11 24 0 58 7 75 16 18 8 40 13 50 10 10 -4 38 1 62 9 23 8 60 15 81
15 21 0 40 4 43 9 3 4 31 11 62 14 31 3 62 11 67 16 6 6 30 11 53 11 23 0 58
7 79 16 21 8 44 13 52 9 9 -3 22 0 29 6 7 6 41 13 74 16 33 3 63 10 66 14 3 5
21 9 40 9 20 0 43 4 53 10 17 9 74 21 181 38 25 4 51 11 58 16 7 4 39 12 70
17 114 19 147 26 173 37 14 5 42 10 63 10 21 0 43 5 49 11 6 6 26 11 45 11 18
0 43 5 55 12 12 7 38 13 57 14 19 0 43 4 52 9 14 5 20 0 29 -21 12 -31 27 -83
36 -124 2 -14 11 -39 19 -57 8 -17 14 -40 14 -51 0 -12 5 -24 10 -27 6 -3 10
-19 10 -34 0 -16 7 -42 15 -57 8 -16 15 -38 15 -48 0 -21 17 -81 31 -108 5
-10 9 -30 9 -46 0 -15 5 -33 12 -40 6 -6 15 -33 20 -59 18 -98 21 -108 34
-128 8 -11 14 -32 14 -47 0 -15 4 -29 9 -32 5 -3 12 -26 15 -51 4 -24 11 -47
17 -50 5 -4 9 -19 9 -36 0 -16 4 -37 9 -47 5 -9 16 -44 25 -77 10 -33 22 -74
27 -91 5 -17 9 -41 9 -55 0 -13 7 -33 15 -43 8 -11 15 -29 15 -40 0 -11 4 -33
9 -50 26 -88 40 -135 51 -176 7 -25 16 -54 20 -65 19 -47 40 -126 40 -149 0
-13 6 -37 14 -53 17 -35 36 -94 36 -115 0 -9 7 -29 15 -44 8 -16 15 -38 15
-49 0 -24 18 -45 37 -45 8 0 13 13 13 33 0 17 7 45 15 61 8 15 15 41 15 57 0
15 5 31 10 34 6 3 10 16 10 27 0 12 4 35 10 52 27 88 41 139 45 163 2 16 11
71 20 123 9 52 20 133 25 180 5 47 14 139 22 205 18 165 17 1174 -2 1290 -7
44 -16 127 -21 185 -4 58 -12 127 -17 155 -5 27 -8 55 -5 61 2 6 -3 38 -11 70
-8 33 -15 80 -15 106 1 25 -4 55 -9 65 -6 11 -13 51 -16 91 -2 39 -8 77 -12
84 -4 6 -11 44 -15 82 -9 84 -18 126 -32 144 -12 16 -72 14 -117 -3z"/>
<path d="M4050 6830 c-8 -5 -26 -10 -40 -10 -14 0 -45 -6 -70 -14 -50 -16
-143 -38 -176 -42 -12 -1 -31 -7 -43 -14 -12 -6 -30 -9 -40 -5 -10 3 -34 -1
-54 -10 -20 -8 -51 -15 -70 -15 -18 0 -42 -6 -53 -14 -10 -8 -28 -13 -40 -10
-12 3 -38 -2 -59 -10 -21 -9 -48 -16 -62 -16 -13 0 -33 -5 -44 -10 -11 -6 -34
-12 -52 -14 -32 -3 -96 -18 -172 -39 -22 -6 -48 -10 -58 -9 -10 1 -34 -5 -54
-13 -19 -8 -49 -15 -65 -15 -16 0 -40 -7 -53 -16 -14 -9 -32 -13 -41 -10 -8 3
-25 1 -36 -5 -28 -15 -23 -60 32 -284 12 -49 25 -97 30 -105 4 -9 11 -36 15
-60 8 -51 23 -115 35 -145 4 -11 27 -101 50 -200 23 -99 46 -189 50 -200 5
-11 16 -54 25 -95 9 -41 20 -86 25 -100 4 -14 16 -61 26 -105 10 -44 21 -84
26 -89 4 -6 8 -20 8 -32 0 -28 10 -54 20 -54 9 0 22 34 45 115 81 285 267 645
537 1038 131 189 277 388 396 535 23 29 42 59 42 67 0 17 -56 21 -80 5z"/>
<path d="M5390 6538 c-19 -5 -53 -12 -75 -15 -22 -3 -44 -9 -49 -14 -6 -5 -20
-9 -33 -9 -13 0 -31 -4 -41 -10 -9 -5 -34 -16 -54 -25 -73 -29 -113 -48 -118
-54 -6 -7 -32 -23 -74 -47 -39 -21 -151 -110 -197 -155 -34 -33 -179 -222
-179 -232 0 -3 -15 -31 -33 -64 -46 -82 -120 -260 -113 -271 3 -6 -1 -29 -8
-53 -17 -51 -36 -193 -36 -265 0 -49 11 -123 31 -214 5 -25 12 -56 14 -70 13
-66 89 -216 149 -295 103 -135 269 -255 406 -294 25 -7 64 -20 87 -28 31 -11
80 -13 205 -10 149 3 222 14 270 38 10 5 26 9 35 9 35 0 273 126 303 161 3 3
30 24 60 46 56 41 120 106 120 123 0 11 -60 52 -135 90 -22 11 -58 32 -80 46
-22 13 -47 27 -55 30 -24 9 -75 37 -80 44 -3 4 -24 17 -48 29 l-43 22 -42 -30
c-23 -17 -75 -47 -116 -67 -70 -36 -78 -37 -190 -40 l-116 -3 -51 34 c-76 50
-141 139 -159 220 -20 87 -23 163 -10 233 28 146 84 279 158 375 66 86 215
217 246 217 5 0 31 11 57 25 42 22 59 25 155 25 117 0 143 -9 219 -74 39 -33
90 -115 90 -145 0 -11 5 -23 10 -26 6 -4 10 -64 10 -147 0 -159 -5 -148 90
-197 30 -15 71 -38 90 -49 19 -12 42 -25 50 -29 8 -3 17 -9 20 -12 9 -10 175
-92 185 -91 47 2 72 130 69 351 -2 143 -5 176 -28 259 -15 52 -34 109 -42 127
-8 17 -24 53 -37 80 -37 80 -175 244 -231 275 -17 9 -41 26 -53 37 -12 12 -29
21 -38 21 -9 0 -18 7 -21 15 -4 8 -14 15 -24 15 -10 0 -20 3 -22 8 -6 13 -69
42 -92 42 -12 0 -26 4 -31 9 -6 5 -28 11 -50 14 -22 3 -58 10 -80 16 -49 13
-197 13 -245 -1z"/>
<path d="M7047 5063 c-4 -3 -7 -20 -7 -36 0 -31 -15 -87 -31 -120 -5 -9 -16
-39 -25 -65 -8 -26 -26 -69 -39 -97 -24 -52 -39 -85 -75 -170 -40 -93 -52
-120 -110 -240 -31 -66 -85 -169 -119 -229 -33 -59 -61 -110 -61 -112 0 -3
-18 -29 -40 -59 -22 -30 -40 -57 -40 -61 0 -4 -22 -36 -49 -73 -26 -36 -54
-77 -61 -91 -7 -14 -27 -41 -44 -61 -33 -39 -41 -48 -102 -125 -62 -78 -65
-82 -136 -157 -38 -39 -68 -75 -68 -80 0 -18 254 34 276 56 4 4 24 7 44 7 20
0 40 4 45 9 6 5 28 11 50 14 47 6 123 26 147 38 10 5 32 9 50 9 18 1 44 7 58
15 14 8 39 14 57 15 17 0 35 5 38 10 3 6 25 10 49 10 23 0 46 4 52 10 10 10
73 26 144 37 19 3 41 10 48 16 12 10 46 18 152 36 25 4 55 13 67 19 12 7 33
12 47 12 14 0 28 5 31 10 3 6 24 10 46 10 45 0 57 16 42 58 -26 71 -104 347
-110 387 -2 17 -8 39 -13 50 -4 11 -16 47 -25 80 -10 33 -21 69 -25 80 -4 11
-15 47 -24 80 -9 33 -21 78 -28 100 -6 22 -16 58 -23 80 -7 22 -18 60 -25 85
-6 25 -17 65 -25 90 -7 25 -18 63 -24 85 -6 22 -22 76 -35 120 -14 44 -28 91
-31 105 -12 41 -32 60 -48 43z"/>
<path d="M4290 4140 c-8 -5 -26 -10 -40 -10 -14 0 -34 -6 -45 -13 -11 -8 -50
-30 -86 -49 -120 -64 -288 -210 -395 -342 -88 -109 -216 -298 -304 -446 -68
-116 -67 -115 -123 -217 -21 -40 -43 -75 -48 -79 -5 -3 -9 -11 -9 -19 0 -8
-27 -69 -59 -137 -32 -68 -71 -154 -86 -193 -14 -38 -31 -80 -38 -93 -6 -12
-11 -44 -11 -69 l-1 -46 55 -14 c30 -8 59 -19 65 -24 5 -5 18 -9 28 -9 17 0
19 -5 14 -33 -3 -18 -14 -53 -25 -78 -10 -24 -36 -98 -57 -164 -21 -66 -41
-124 -45 -130 -4 -5 -15 -41 -25 -80 -21 -84 -70 -234 -79 -242 -3 -4 -6 -17
-6 -29 0 -13 -5 -34 -11 -48 -9 -20 -8 -29 7 -50 11 -14 26 -26 36 -26 17 0
103 92 353 380 154 178 279 310 293 310 11 0 45 -121 85 -300 9 -37 18 -55 28
-55 9 0 36 25 60 55 50 61 200 270 239 331 14 22 58 92 99 157 40 64 81 128
90 142 8 14 21 34 27 45 6 11 28 49 48 85 38 67 170 334 213 430 44 99 139
344 158 405 10 33 21 65 25 70 4 6 10 26 13 45 2 19 12 78 21 129 9 52 14 109
10 125 -16 75 -39 124 -76 163 -39 40 -145 99 -218 121 -45 13 -160 15 -180 2z"/>
</g>
</svg>
